# xmcd
#
# Track frame offsets:
#	150
#	19042
#	35096
#	51245
#	64722
#	79349
#	94231
#	111291
#	128353
#	140599
#	154404
#	171641
#	189477
#	202135
#	215022
#	216399
#	217760
#
# Disc length: 2918 seconds
#
# Revision: 1
# Processed by: cddbd v1.5.2PL0 Copyright (c) Steve Scherf et al.
# Submitted via: audiograbber 1.83.01
#
DISCID=0b0b6411
DTITLE=Various Artists - CDX 486
DYEAR=2009
DGENRE=Country
TTITLE0=Trent Tomlinson - Angels Like Her
TTITLE1=Rodney Atkins - Chasin' Girls
TTITLE2=Big Kenny - Long After I'm Gone
TTITLE3=Randy Houser - Whistlin' Dixie
TTITLE4=Gretchen Wilson - Work Hard, Play Harder
TTITLE5=Ty Williams - Barn On the Rooftop
TTITLE6=Adam Fisher - Cotton Town
TTITLE7=Nathan Lee Jackson - Desperate Man
TTITLE8=Kate Russell - Kick Down The Door
TTITLE9=Veronica Ballestrini - Out There Somewhere
TTITLE10=Darren Kozelsky - Real Superman 
TTITLE11=Brad Wolf - Tan Lines 
TTITLE12=Grayson Crossino - Tattoo Song 
TTITLE13=Pat Garrett - Wild Hog 
TTITLE14=Carrie Underwood - CMA Liner
TTITLE15=Martina McBride - CMA Liner
TTITLE16=Luke Bryan - CMA Liner
EXTD=
EXTT0=
EXTT1=
EXTT2=
EXTT3=
EXTT4=
EXTT5=
EXTT6=
EXTT7=
EXTT8=
EXTT9=
EXTT10=
EXTT11=
EXTT12=
EXTT13=
EXTT14=
EXTT15=
EXTT16=
PLAYORDER=
